<svg enable-background="new 0 0 24 24" height="512" viewBox="0 0 24 24" width="512" xmlns="http://www.w3.org/2000/svg"><path d="m20.5 22h-18c-1.379 0-2.5-1.122-2.5-2.5v-16c0-.276.224-.5.5-.5s.5.224.5.5v16c0 .827.673 1.5 1.5 1.5h18c.275 0 .5-.224.5-.5v-4c0-.276.224-.5.5-.5s.5.224.5.5v4c0 .827-.673 1.5-1.5 1.5z"/><path d="m21.5 11c-.276 0-.5-.224-.5-.5v-4c0-.276-.225-.5-.5-.5h-18c-1.379 0-2.5-1.122-2.5-2.5s1.121-2.5 2.5-2.5h15c.827 0 1.5.673 1.5 1.5v2.5h1.5c.827 0 1.5.673 1.5 1.5v4c0 .276-.224.5-.5.5zm-19-9c-.827 0-1.5.673-1.5 1.5s.673 1.5 1.5 1.5h15.5v-2.5c0-.276-.225-.5-.5-.5z"/><path d="m23.5 17h-5c-1.93 0-3.5-1.57-3.5-3.5s1.57-3.5 3.5-3.5h5c.276 0 .5.224.5.5v6c0 .276-.224.5-.5.5zm-5-6c-1.379 0-2.5 1.122-2.5 2.5s1.121 2.5 2.5 2.5h4.5v-5z"/><path d="m18.5 15c-.827 0-1.5-.673-1.5-1.5s.673-1.5 1.5-1.5 1.5.673 1.5 1.5-.673 1.5-1.5 1.5zm0-2c-.275 0-.5.224-.5.5s.225.5.5.5.5-.224.5-.5-.225-.5-.5-.5z"/></svg>